<svg width="79" height="21" viewBox="0 0 79 21" fill="none" xmlns="http://www.w3.org/2000/svg">
<path d="M9.41523 20.258H5.75161V5.35327H0.230576V1.62382H14.9235V5.35327H9.41523V20.258ZM20.6239 2.55943C20.6239 2.88863 20.5599 3.19617 20.4317 3.48204C20.3122 3.76794 20.1457 4.01916 19.9321 4.23574C19.7186 4.44366 19.4667 4.61258 19.1764 4.74252C18.8945 4.8638 18.5914 4.92444 18.2668 4.92444C17.9423 4.92444 17.6349 4.8638 17.3445 4.74252C17.0627 4.61258 16.8151 4.44366 16.6016 4.23574C16.3966 4.01916 16.2301 3.76794 16.102 3.48204C15.9824 3.19617 15.9226 2.88863 15.9226 2.55943C15.9226 2.2389 15.9824 1.93569 16.102 1.64982C16.2301 1.35526 16.3966 1.10404 16.6016 0.89612C16.8151 0.679545 17.0627 0.510624 17.3445 0.38934C17.6349 0.259398 17.9423 0.194427 18.2668 0.194427C18.5914 0.194427 18.8945 0.259398 19.1764 0.38934C19.4667 0.510624 19.7186 0.679545 19.9321 0.89612C20.1457 1.10404 20.3122 1.35526 20.4317 1.64982C20.5599 1.93569 20.6239 2.2389 20.6239 2.55943ZM20.0219 20.258H16.4991V6.34085H20.0219V20.258ZM34.6891 9.1087L32.127 11.7206C31.999 11.3568 31.8239 11.0319 31.6018 10.746C31.3799 10.4515 31.128 10.2046 30.8461 10.0053C30.5729 9.80608 30.274 9.65448 29.9494 9.55051C29.6249 9.44656 29.2918 9.39458 28.9502 9.39458C28.472 9.39458 28.0194 9.49422 27.5925 9.69346C27.1739 9.8927 26.8067 10.1743 26.4908 10.5381C26.1833 10.8933 25.9399 11.3178 25.7606 11.8116C25.5813 12.3054 25.4916 12.8511 25.4916 13.4489C25.4916 13.9339 25.5813 14.3888 25.7606 14.8134C25.9399 15.2378 26.1833 15.6104 26.4908 15.9308C26.8067 16.2514 27.1739 16.5026 27.5925 16.6845C28.0194 16.8665 28.472 16.9573 28.9502 16.9573C29.2918 16.9573 29.6206 16.9098 29.9366 16.8145C30.2527 16.7192 30.5472 16.5849 30.8205 16.4116C31.1023 16.2297 31.35 16.0131 31.5635 15.7619C31.7854 15.502 31.9649 15.2161 32.1015 14.9042L34.6634 17.5162C34.3389 17.9841 33.9631 18.4042 33.5362 18.7766C33.1176 19.1492 32.6608 19.4653 32.1655 19.7253C31.6788 19.9852 31.1621 20.1802 30.6156 20.31C30.0776 20.4486 29.5225 20.518 28.9502 20.518C27.9853 20.518 27.0758 20.3359 26.2218 19.9722C25.3763 19.5996 24.6334 19.0929 23.9929 18.4517C23.3608 17.8107 22.8613 17.0613 22.494 16.2037C22.1269 15.346 21.9433 14.4279 21.9433 13.4489C21.9433 12.3833 22.1269 11.3871 22.494 10.4601C22.8613 9.53319 23.3608 8.72753 23.9929 8.04314C24.6334 7.3501 25.3763 6.80433 26.2218 6.40582C27.0758 6.00732 27.9853 5.80808 28.9502 5.80808C29.5225 5.80808 30.0818 5.88171 30.6283 6.02899C31.1835 6.17626 31.7087 6.39284 32.204 6.67871C32.7079 6.95593 33.1689 7.29812 33.5874 7.70528C34.0143 8.11246 34.3816 8.58026 34.6891 9.1087ZM39.9283 20.258H36.4055V0.805158H39.9283V13.072L45.1418 6.36685H49.1643L44.6168 12.1624L49.1643 20.258H45.1418L42.3622 15.2032L39.9283 18.4778V20.258ZM54.6725 2.55943C54.6725 2.88863 54.6083 3.19617 54.4803 3.48204C54.3606 3.76794 54.1941 4.01916 53.9808 4.23574C53.7672 4.44366 53.5152 4.61258 53.2249 4.74252C52.9431 4.8638 52.64 4.92444 52.3154 4.92444C51.991 4.92444 51.6835 4.8638 51.3932 4.74252C51.1112 4.61258 50.8636 4.44366 50.6502 4.23574C50.4452 4.01916 50.2787 3.76794 50.1505 3.48204C50.0311 3.19617 49.9713 2.88863 49.9713 2.55943C49.9713 2.2389 50.0311 1.93569 50.1505 1.64982C50.2787 1.35526 50.4452 1.10404 50.6502 0.89612C50.8636 0.679545 51.1112 0.510624 51.3932 0.38934C51.6835 0.259398 51.991 0.194427 52.3154 0.194427C52.64 0.194427 52.9431 0.259398 53.2249 0.38934C53.5152 0.510624 53.7672 0.679545 53.9808 0.89612C54.1941 1.10404 54.3606 1.35526 54.4803 1.64982C54.6083 1.93569 54.6725 2.2389 54.6725 2.55943ZM54.0703 20.258H50.5477V6.34085H54.0703V20.258ZM63.6265 20.258C62.7811 20.258 61.9869 20.0978 61.2439 19.7772C60.5009 19.4481 59.8477 19.0019 59.284 18.4388C58.7289 17.867 58.289 17.2043 57.9646 16.4506C57.6485 15.697 57.4906 14.8913 57.4906 14.0336V9.90137H55.7869V6.36685H57.4906V0.805158H60.9749V6.36685H66.2781V9.90137H60.9749V14.0336C60.9749 14.4062 61.0431 14.757 61.1799 15.0863C61.3165 15.4067 61.5043 15.6883 61.7434 15.9308C61.9827 16.1735 62.2644 16.3683 62.5889 16.5156C62.9135 16.6543 63.2592 16.7235 63.6265 16.7235H66.2781V20.258H63.6265ZM78.9599 20.258H67.5208L73.298 9.90137H67.5208V6.36685H78.9599L73.1827 16.7235H78.9599V20.258Z" fill="#5F2EEA"/>
</svg>
